# xmcd CD database file
#
# Track frame offsets:
#	150
#	15428
#	34805
#	58719
#	77510
#	106072
#	125230
#	145854
#	165944
#	192060
#	217841
#	233171
#	243890
#	270102
#	290162
#	308303
#
# Disc length: 4346 seconds
#
# Revision: 0
# Processed by: cddbd v1.5.2PL0 Copyright (c) Steve Scherf et al.
# Submitted via: CDex 1.51
#
DISCID=c410f810
DTITLE=Fire House Stompers - Leaving Our Mark
DYEAR=2004
DGENRE=Jazz
TTITLE0=Firehouse Stomp
TTITLE1=That's A-Plenty
TTITLE2=Do Something
TTITLE3=Once In A While
TTITLE4=The Five Pennies
TTITLE5=Snake Rag
TTITLE6=At The Codfish Ball
TTITLE7=Weary Blues
TTITLE8=This Bucket's Got A Hole In It
TTITLE9=I'll See You In C.U.B.A
TTITLE10=Brass Bell
TTITLE11=Maple Leaf Rag
TTITLE12=After You've Gone
TTITLE13=Fireman's Lament
TTITLE14=Aba Daba Honeymoon
TTITLE15=By The Sea
EXTD=YEAR: 2004
EXTT0=
EXTT1=
EXTT2=
EXTT3=
EXTT4=
EXTT5=
EXTT6=
EXTT7=
EXTT8=
EXTT9=
EXTT10=
EXTT11=
EXTT12=
EXTT13=
EXTT14=
EXTT15=
PLAYORDER=
